<?xml version="1.0" encoding="UTF-8" standalone="no"?>
<!DOCTYPE svg PUBLIC "-//W3C//DTD SVG 1.1//EN" "http://www.w3.org/Graphics/SVG/1.1/DTD/svg11.dtd">
<svg width="100%" height="100%" viewBox="0 0 1000 543" version="1.1" xmlns="http://www.w3.org/2000/svg" xmlns:xlink="http://www.w3.org/1999/xlink" xml:space="preserve" xmlns:serif="http://www.serif.com/" style="fill-rule:evenodd;clip-rule:evenodd;stroke-linejoin:round;stroke-miterlimit:2;">
    <rect id="Page-1" serif:id="Page 1" x="0" y="0" width="1000" height="542.473" style="fill:none;"/>
    <g id="Page-11" serif:id="Page 1">
        <g id="safe-zone" serif:id="safe zone">
        </g>
        <g id="logo">
            <g transform="matrix(1,0,0,1,248.308,306.873)">
                <path d="M0,-215.07L-156.504,-215.07L-156.504,0L8.684,0L-102.652,-118.574L0,-215.07ZM-11.403,-210.551L-105.747,-121.866L-109.037,-118.773L-105.946,-115.481L-1.757,-4.518L-151.986,-4.518L-151.986,-210.551L-11.403,-210.551Z" style="fill-rule:nonzero;"/>
            </g>
            <g transform="matrix(1,0,0,1,446.268,312.282)">
                <path d="M0,-220.479L-156.509,-220.479L-156.509,-90.647C-156.509,-68.812 -155.062,-53.705 -152.169,-45.324C-147.565,-31.676 -138.459,-20.71 -124.854,-12.427C-111.25,-4.144 -94.913,0 -75.844,0C-58.276,0 -43.305,-4.386 -30.932,-13.158C-18.559,-21.93 -10.312,-32.238 -6.187,-44.081C-2.064,-55.923 0,-71.444 0,-90.647L0,-220.479ZM-4.519,-215.96L-4.519,-90.647C-4.519,-72.047 -6.515,-56.879 -10.453,-45.567C-14.245,-34.684 -22.014,-25.02 -33.545,-16.844C-45.081,-8.665 -59.313,-4.518 -75.844,-4.518C-93.98,-4.518 -109.679,-8.477 -122.504,-16.286C-135.114,-23.963 -143.654,-34.219 -147.898,-46.797C-150.614,-54.666 -151.991,-69.419 -151.991,-90.647L-151.991,-215.96L-4.519,-215.96" style="fill-rule:nonzero;"/>
            </g>
            <g transform="matrix(1,0,0,1,543.788,306.873)">
                <path d="M0,-215.07L-44.593,-215.07L-44.593,0L23.832,0C50.636,0 71.47,-3.897 86.335,-11.696C101.198,-19.493 113.285,-31.58 122.594,-47.956C131.901,-64.331 136.557,-83.288 136.557,-104.83C136.557,-129.781 130.685,-151.274 118.939,-169.307C107.192,-187.339 90.891,-200.011 70.033,-207.321C55.508,-212.487 32.166,-215.07 0,-215.07M0,-210.551C31.494,-210.551 54.547,-208.032 68.539,-203.057C88.334,-196.119 104.018,-183.934 115.153,-166.841C126.358,-149.638 132.039,-128.774 132.039,-104.83C132.039,-84.185 127.54,-65.8 118.667,-50.189C109.835,-34.654 98.251,-23.049 84.236,-15.697C70.097,-8.279 49.774,-4.518 23.832,-4.518L-40.074,-4.518L-40.074,-210.551L0,-210.551" style="fill-rule:nonzero;"/>
            </g>
            <g transform="matrix(1,0,0,1,815.293,306.874)">
                <path d="M0,-214.612L-93.359,-118.591L-93.359,0L92.904,0L92.904,-118.591L0,-214.612ZM-0.008,-208.123L88.386,-116.763L88.386,-4.519L-88.841,-4.519L-88.841,-116.757L-0.008,-208.123Z" style="fill:rgb(252,184,23);fill-rule:nonzero;"/>
            </g>
            <g transform="matrix(1,0,0,1,132.204,385.636)">
                <path d="M0,60.599C13.301,60.599 23.976,49.432 23.976,36.622L23.976,25.29L-18.23,25.29C-28.084,25.29 -35.966,33.175 -35.966,42.864C-35.966,52.717 -28.084,60.599 -18.23,60.599L0,60.599ZM0,-4.435C15.272,-4.435 28.576,8.212 28.576,23.976L28.576,36.622C28.576,52.387 15.272,65.034 0,65.034L-18.23,65.034C-30.547,65.034 -40.401,55.18 -40.401,42.864C-40.401,30.712 -30.547,20.856 -18.23,20.856L23.976,20.856L23.319,18.23C20.691,7.72 10.837,0 0,0L-29.068,0C-30.217,0 -31.204,-0.984 -31.204,-2.134C-31.204,-3.448 -30.217,-4.435 -29.068,-4.435L0,-4.435Z" style="fill:rgb(252,184,23);fill-rule:nonzero;"/>
            </g>
            <g transform="matrix(1,0,0,1,174.248,422.587)">
                <path d="M0,-13.302C0.328,-28.574 12.974,-41.385 28.411,-41.385L37.28,-41.385C44.833,-41.385 52.061,-38.427 57.314,-33.009C57.809,-32.681 57.971,-32.024 57.971,-31.532C57.971,-30.218 56.987,-29.231 55.838,-29.231C55.181,-29.231 54.688,-29.396 54.194,-29.888C49.597,-34.323 43.521,-36.951 37.28,-36.951L28.411,-36.951C15.767,-36.951 4.762,-26.276 4.435,-13.467L4.435,25.784C4.435,27.098 3.448,28.083 2.299,28.083C0.984,28.083 0,27.098 0,25.784L0,-13.302Z" style="fill:rgb(252,184,23);fill-rule:nonzero;"/>
            </g>
            <g transform="matrix(1,0,0,1,298.737,385.636)">
                <path d="M0,60.599C1.149,60.599 2.136,61.586 2.136,62.735C2.136,64.049 1.149,65.034 0,65.034L-26.604,65.034C-42.042,65.034 -55.016,52.06 -55.016,36.622L-55.016,23.976C-55.016,8.539 -42.042,-4.435 -26.604,-4.435L0,-4.435C1.149,-4.435 2.136,-3.448 2.136,-2.134C2.136,-0.984 1.149,0 0,0L-26.604,0C-39.249,0 -50.581,10.675 -50.581,23.976L-50.581,36.622C-50.581,49.597 -39.579,60.599 -26.604,60.599L0,60.599Z" style="fill:rgb(252,184,23);fill-rule:nonzero;"/>
            </g>
            <g transform="matrix(1,0,0,1,379.371,361.002)">
                <path d="M0,87.531C0,88.683 -0.987,89.667 -2.298,89.667C-3.45,89.667 -4.434,88.683 -4.434,87.531L-4.434,47.953C-4.434,35.144 -15.272,24.306 -28.083,24.306L-33.83,24.306C-46.641,24.306 -57.151,34.817 -57.479,47.461L-57.479,87.531C-57.479,88.683 -58.466,89.667 -59.777,89.667C-60.929,89.667 -61.913,88.683 -61.913,87.531L-61.913,-0C-61.913,-1.149 -60.929,-2.136 -59.777,-2.136C-58.466,-2.136 -57.479,-1.149 -57.479,-0L-57.479,32.023L-53.701,28.084C-48.612,22.662 -41.385,20.036 -33.83,19.871L-28.083,19.871C-12.974,19.871 -0.33,32.515 0,47.625L0,87.531Z" style="fill:rgb(252,184,23);fill-rule:nonzero;"/>
            </g>
            <g transform="matrix(1,0,0,1,398.588,428.991)">
                <path d="M0,-44.67C0,-45.984 0.984,-46.968 2.298,-46.968C3.448,-46.968 4.435,-45.984 4.435,-44.67L4.435,19.542C4.435,20.694 3.448,21.678 2.298,21.678C0.984,21.678 0,20.694 0,19.542L0,-44.67ZM5.254,-63.39C5.254,-61.749 3.942,-60.434 2.298,-60.434C0.657,-60.434 -0.657,-61.749 -0.657,-63.39C-0.657,-65.034 0.657,-66.348 2.298,-66.348C3.942,-66.348 5.254,-65.034 5.254,-63.39" style="fill:rgb(252,184,23);fill-rule:nonzero;"/>
            </g>
            <g transform="matrix(1,0,0,1,428.97,386.949)">
                <path d="M0,35.637C0,48.611 10.675,59.286 23.649,59.286L29.887,59.286C31.039,59.286 32.023,60.273 32.023,61.584C32.023,62.736 31.039,63.72 29.887,63.72L23.649,63.72C8.212,63.72 -4.435,51.074 -4.435,35.637L-4.435,-25.947C-4.435,-27.096 -3.45,-28.083 -2.299,-28.083C-0.987,-28.083 0,-27.096 0,-25.947L0,-5.91L28.246,-5.91C29.56,-5.91 30.544,-4.926 30.544,-3.777C30.544,-2.463 29.56,-1.478 28.246,-1.478L0,-1.478L0,35.637Z" style="fill:rgb(252,184,23);fill-rule:nonzero;"/>
            </g>
            <g transform="matrix(1,0,0,1,544.258,422.259)">
                <path d="M0,-12.647C0,-25.621 -11.002,-36.623 -23.977,-36.623L-36.623,-36.623C-49.432,-36.623 -60.599,-25.783 -60.599,-12.647L-60.599,-1.48L0,-1.48L0,-12.647ZM-58.466,9.688C-54.688,18.393 -45.819,23.976 -36.623,23.976L-6.076,23.976C-4.927,23.976 -3.942,24.963 -3.942,26.112C-3.942,27.426 -4.927,28.411 -6.076,28.411L-36.623,28.411C-53.209,28.411 -65.034,14.453 -65.034,-1.314L-65.034,-12.647C-65.034,-28.084 -52.06,-41.058 -36.623,-41.058L-23.977,-41.058C-8.539,-41.058 4.435,-28.084 4.435,-12.647L4.435,-1.149C4.435,1.149 2.628,2.955 0.492,2.955L-61.421,2.955L-58.466,9.688Z" style="fill:rgb(252,184,23);fill-rule:nonzero;"/>
            </g>
            <g transform="matrix(1,0,0,1,620.624,385.636)">
                <path d="M0,60.599C1.149,60.599 2.136,61.586 2.136,62.735C2.136,64.049 1.149,65.034 0,65.034L-26.604,65.034C-42.042,65.034 -55.016,52.06 -55.016,36.622L-55.016,23.976C-55.016,8.539 -42.042,-4.435 -26.604,-4.435L0,-4.435C1.149,-4.435 2.136,-3.448 2.136,-2.134C2.136,-0.984 1.149,0 0,0L-26.604,0C-39.251,0 -50.581,10.675 -50.581,23.976L-50.581,36.622C-50.581,49.597 -39.578,60.599 -26.604,60.599L0,60.599Z" style="fill:rgb(252,184,23);fill-rule:nonzero;"/>
            </g>
            <g transform="matrix(1,0,0,1,641.977,386.949)">
                <path d="M0,35.637C0,48.611 10.675,59.286 23.649,59.286L29.887,59.286C31.039,59.286 32.023,60.273 32.023,61.584C32.023,62.736 31.039,63.72 29.887,63.72L23.649,63.72C8.212,63.72 -4.435,51.074 -4.435,35.637L-4.435,-25.947C-4.435,-27.096 -3.45,-28.083 -2.299,-28.083C-0.987,-28.083 0,-27.096 0,-25.947L0,-5.91L28.246,-5.91C29.56,-5.91 30.544,-4.926 30.544,-3.777C30.544,-2.463 29.56,-1.478 28.246,-1.478L0,-1.478L0,35.637Z" style="fill:rgb(252,184,23);fill-rule:nonzero;"/>
            </g>
            <g transform="matrix(1,0,0,1,692.231,448.368)">
                <path d="M0,-64.866C0,-66.18 0.984,-67.167 2.298,-67.167C3.447,-67.167 4.434,-66.18 4.434,-64.866L4.434,-25.782C4.762,-12.643 15.767,-2.133 28.411,-2.133L34.322,-2.133C47.295,-2.133 58.301,-13.136 58.301,-26.11L58.301,-64.866C58.301,-66.18 59.285,-67.167 60.434,-67.167C61.749,-67.167 62.735,-66.18 62.735,-64.866L62.735,-25.782C62.405,-10.508 49.761,2.301 34.322,2.301L28.411,2.301C12.974,2.301 0.327,-10.508 0,-25.782L0,-64.866Z" style="fill:rgb(252,184,23);fill-rule:nonzero;"/>
            </g>
            <g transform="matrix(1,0,0,1,769.257,422.587)">
                <path d="M0,-13.302C0.327,-28.574 12.974,-41.385 28.411,-41.385L37.28,-41.385C44.832,-41.385 52.06,-38.427 57.314,-33.009C57.806,-32.681 57.971,-32.024 57.971,-31.532C57.971,-30.218 56.987,-29.231 55.837,-29.231C55.18,-29.231 54.688,-29.396 54.193,-29.888C49.597,-34.323 43.521,-36.951 37.28,-36.951L28.411,-36.951C15.764,-36.951 4.762,-26.276 4.435,-13.467L4.435,25.784C4.435,27.098 3.447,28.083 2.298,28.083C0.984,28.083 0,27.098 0,25.784L0,-13.302Z" style="fill:rgb(252,184,23);fill-rule:nonzero;"/>
            </g>
            <g transform="matrix(1,0,0,1,903.762,422.259)">
                <path d="M0,-12.647C0,-25.621 -11.003,-36.623 -23.977,-36.623L-36.623,-36.623C-49.432,-36.623 -60.6,-25.783 -60.6,-12.647L-60.6,-1.48L0,-1.48L0,-12.647ZM-58.466,9.688C-54.688,18.393 -45.819,23.976 -36.623,23.976L-6.076,23.976C-4.927,23.976 -3.942,24.963 -3.942,26.112C-3.942,27.426 -4.927,28.411 -6.076,28.411L-36.623,28.411C-53.209,28.411 -65.034,14.453 -65.034,-1.314L-65.034,-12.647C-65.034,-28.084 -52.061,-41.058 -36.623,-41.058L-23.977,-41.058C-8.54,-41.058 4.435,-28.084 4.435,-12.647L4.435,-1.149C4.435,1.149 2.628,2.955 0.492,2.955L-61.421,2.955L-58.466,9.688Z" style="fill:rgb(252,184,23);fill-rule:nonzero;"/>
            </g>
        </g>
    </g>
</svg>
