<?xml version="1.0" encoding="UTF-8" standalone="no"?>
<!DOCTYPE svg PUBLIC "-//W3C//DTD SVG 1.1//EN" "http://www.w3.org/Graphics/SVG/1.1/DTD/svg11.dtd">
<svg width="100%" height="100%" viewBox="0 0 24 24" version="1.1" xmlns="http://www.w3.org/2000/svg" xmlns:xlink="http://www.w3.org/1999/xlink" xml:space="preserve" xmlns:serif="http://www.serif.com/" style="fill-rule:evenodd;clip-rule:evenodd;stroke-linecap:round;stroke-linejoin:round;stroke-miterlimit:1.5;">
    <g id="Layer1">
        <g transform="matrix(0.00384506,0.638685,0.995008,6.08229e-17,3.94423,1.4923)">
            <path d="M10.189,6.06L22.715,6" style="fill:none;stroke:black;stroke-width:0.95px;"/>
        </g>
        <g transform="matrix(0.00384506,0.638685,0.995008,6.08229e-17,7.92925,1.4923)">
            <path d="M10.189,6.06L22.715,6" style="fill:none;stroke:black;stroke-width:0.95px;"/>
        </g>
        <g transform="matrix(1,0,0,1,-0.00496805,0.248622)">
            <path d="M12,1.5C17.112,1.5 21.376,5.161 22.31,10.003M1.938,8.994C3.232,4.662 7.249,1.5 12,1.5" style="fill:none;stroke:black;stroke-width:0.8px;"/>
        </g>
        <g transform="matrix(-1,-1.22465e-16,1.22465e-16,-1,24.205,23.7514)">
            <path d="M12,1.5C17.112,1.5 21.376,5.161 22.31,10.003M1.938,8.994C3.232,4.662 7.249,1.5 12,1.5" style="fill:none;stroke:black;stroke-width:0.8px;"/>
        </g>
        <g transform="matrix(-0.622457,1.73966e-17,-1.79625e-16,-0.692764,8.14405,20.294)">
            <path d="M3.292,15.925L10.039,15.925L10.039,21.987" style="fill:none;stroke:black;stroke-width:1.21px;"/>
        </g>
        <g transform="matrix(0.622457,5.88324e-17,9.47859e-17,0.692764,16.056,3.70598)">
            <path d="M3.292,15.925L10.039,15.925L10.039,21.987" style="fill:none;stroke:black;stroke-width:1.21px;"/>
        </g>
    </g>
</svg>
