<?xml version="1.0" encoding="UTF-8" standalone="no"?>
<!DOCTYPE svg PUBLIC "-//W3C//DTD SVG 1.1//EN" "http://www.w3.org/Graphics/SVG/1.1/DTD/svg11.dtd">
<svg width="100%" height="100%" viewBox="0 0 24 24" version="1.1" xmlns="http://www.w3.org/2000/svg" xmlns:xlink="http://www.w3.org/1999/xlink" xml:space="preserve" xmlns:serif="http://www.serif.com/" style="fill-rule:evenodd;clip-rule:evenodd;stroke-linejoin:round;stroke-miterlimit:2;">
    <path d="M11.75,4.5C12.161,4.5 12.5,4.839 12.5,5.25L12.5,11L18.25,11C18.661,11 19,11.339 19,11.75C19,12.161 18.661,12.5 18.25,12.5L12.5,12.5L12.5,18.25C12.5,18.661 12.161,19 11.75,19C11.339,19 11,18.661 11,18.25L11,12.5L5.25,12.5C4.839,12.5 4.5,12.161 4.5,11.75C4.5,11.339 4.839,11 5.25,11L11,11L11,5.25C11,4.839 11.339,4.5 11.75,4.5Z" style="fill-rule:nonzero;"/>
</svg>
