<?xml version="1.0" encoding="UTF-8" standalone="no"?>
<!DOCTYPE svg PUBLIC "-//W3C//DTD SVG 1.1//EN" "http://www.w3.org/Graphics/SVG/1.1/DTD/svg11.dtd">
<svg width="100%" height="100%" viewBox="0 0 24 24" version="1.1" xmlns="http://www.w3.org/2000/svg" xmlns:xlink="http://www.w3.org/1999/xlink" xml:space="preserve" xmlns:serif="http://www.serif.com/" style="fill-rule:evenodd;clip-rule:evenodd;stroke-linecap:round;stroke-linejoin:round;stroke-miterlimit:1.5;">
    <g id="Layer1">
        <g transform="matrix(0.707107,-0.707107,-0.707107,-0.707107,17.4024,35.0488)">
            <path d="M12,7.266L12,16.766M15.889,13.066L12,16.955L8.111,13.066" style="fill:none;stroke:black;stroke-width:0.8px;"/>
        </g>
        <g transform="matrix(0.707107,-0.707107,0.707107,0.707107,-11.0488,5.9218)">
            <path d="M12,7.266L12,16.766M15.889,13.066L12,16.955L8.111,13.066" style="fill:none;stroke:black;stroke-width:0.8px;"/>
        </g>
        <g transform="matrix(-0.707107,-0.707107,-0.707107,0.707107,34.373,5.9218)">
            <path d="M12,7.266L12,16.766M15.889,13.066L12,16.955L8.111,13.066" style="fill:none;stroke:black;stroke-width:0.8px;"/>
        </g>
        <g transform="matrix(-0.707107,-0.707107,0.707107,-0.707107,5.9218,35.0488)">
            <path d="M12,7.266L12,16.766M15.889,13.066L12,16.955L8.111,13.066" style="fill:none;stroke:black;stroke-width:0.8px;"/>
        </g>
    </g>
</svg>
